<?xml version="1.0" standalone="no"?>
<!DOCTYPE svg PUBLIC "-//W3C//DTD SVG 20010904//EN"
 "http://www.w3.org/TR/2001/REC-SVG-20010904/DTD/svg10.dtd">
<svg version="1.0" xmlns="http://www.w3.org/2000/svg"
 width="512.000000pt" height="512.000000pt" viewBox="0 0 512.000000 512.000000"
 preserveAspectRatio="xMidYMid meet">

<g transform="translate(0.000000,512.000000) scale(0.100000,-0.100000)"
fill="#000000" stroke="none">
<path d="M1639 3296 c-86 -31 -154 -119 -166 -215 -5 -44 -3 -52 20 -75 15
-15 37 -26 52 -26 34 0 75 42 75 77 0 73 75 126 145 103 41 -14 75 -53 75 -87
0 -63 51 -104 104 -83 36 13 49 45 42 98 -12 90 -76 172 -161 208 -42 17 -137
18 -186 0z"/>
<path d="M3292 3296 c-55 -26 -98 -64 -125 -113 -47 -87 -48 -159 -2 -189 51
-33 115 11 115 79 0 35 35 75 79 88 72 22 129 -22 145 -113 11 -63 70 -87 117
-49 20 16 24 28 23 73 -2 85 -59 173 -139 216 -42 22 -171 27 -213 8z"/>
<path d="M2311 2884 c-32 -40 -27 -72 18 -114 68 -65 122 -85 231 -85 109 0
163 20 231 85 45 42 50 74 18 114 -29 37 -67 34 -119 -9 -38 -32 -93 -55 -130
-55 -37 0 -92 23 -130 55 -52 43 -90 46 -119 9z"/>
</g>
</svg>
